control3min_grf.mot
version=1
nRows=25
nColumns 19
inDegrees=yes
endheader
time	1_ground_force_vx	1_ground_force_vy	1_ground_force_vz	1_ground_force_px	1_ground_force_py	1_ground_force_pz	1_ground_torque_x	1_ground_torque_y	1_ground_torque_z	2_ground_force_vx	2_ground_force_vy	2_ground_force_vz	2_ground_force_px	2_ground_force_py	2_ground_force_pz	2_ground_torque_x	2_ground_torque_y	2_ground_torque_z
            1.253500	           21.039423	          198.036061	          -22.590254	           -0.253880	            0.006276	           -0.418563	            0.084148	            0.792049	           -0.090350	           20.201816	          247.826305	           32.692689	           -0.238677	            0.005813	           -0.751349	            0.002205	            0.027051	            0.003569
            1.254000	           21.174890	          203.085493	          -23.027511	           -0.253862	            0.006276	           -0.418542	            0.089672	            0.860031	           -0.097517	           18.922722	          251.869136	           33.787029	           -0.238299	            0.005814	           -0.751092	            0.005625	            0.074868	            0.010043
            1.254500	           21.217375	          207.776734	          -24.016358	           -0.254012	            0.006274	           -0.418138	            0.088310	            0.864801	           -0.099960	           17.452257	          257.016059	           34.932318	           -0.238137	            0.005816	           -0.751492	            0.009146	            0.134696	            0.018307
            1.255000	           21.443503	          212.827953	          -24.866546	           -0.253858	            0.006275	           -0.418443	            0.081788	            0.811752	           -0.094844	           15.940221	          260.689899	           35.978515	           -0.237788	            0.005817	           -0.751421	            0.010870	            0.177767	            0.024534
            1.255500	           21.486509	          217.157877	          -25.673515	           -0.253790	            0.006276	           -0.418646	            0.079319	            0.801651	           -0.094775	           14.523775	          263.812493	           36.788061	           -0.237608	            0.005818	           -0.751464	            0.012657	            0.229905	            0.032060
            1.256000	           21.942163	          222.388816	          -26.385932	           -0.253794	            0.006277	           -0.418723	            0.082679	            0.837968	           -0.099423	           12.956084	          269.881455	           37.467395	           -0.237179	            0.005820	           -0.751591	            0.008277	            0.172421	            0.023937
            1.256500	           21.893300	          227.079450	          -27.236983	           -0.253690	            0.006277	           -0.418725	            0.084172	            0.873044	           -0.104717	           11.534903	          274.293764	           38.093827	           -0.237304	            0.005820	           -0.751754	            0.007096	            0.168728	            0.023433
            1.257000	           22.165794	          231.769360	          -27.905408	           -0.253579	            0.006277	           -0.418741	            0.093287	            0.975422	           -0.117442	           10.070984	          277.600056	           38.997906	           -0.236781	            0.005822	           -0.751785	            0.006893	            0.190014	            0.026694
            1.257500	           22.438160	          235.918866	          -28.667863	           -0.253540	            0.006280	           -0.419485	            0.098274	            1.033270	           -0.125559	            8.556289	          282.010520	           40.046731	           -0.236664	            0.005823	           -0.751935	            0.006949	            0.229032	            0.032524
            1.258000	           22.848021	          241.510130	          -29.332764	           -0.253772	            0.006276	           -0.418594	            0.098972	            1.046167	           -0.127063	            7.136458	          286.054320	           40.718778	           -0.236402	            0.005822	           -0.751587	            0.005630	            0.225659	            0.032122
            1.258500	           23.166455	          245.659252	          -30.003621	           -0.254091	            0.006276	           -0.418651	            0.092906	            0.985180	           -0.120325	            5.484454	          289.544243	           41.576665	           -0.236262	            0.005823	           -0.751669	            0.005800	            0.306217	            0.043971
            1.259000	           23.621687	          250.710711	          -30.900234	           -0.254258	            0.006277	           -0.418874	            0.094836	            1.006555	           -0.124058	            4.155809	          294.323833	           42.579797	           -0.235636	            0.005827	           -0.752049	            0.004714	            0.333849	            0.048298
            1.259500	           23.664558	          257.023195	          -31.606988	           -0.253851	            0.006275	           -0.418297	            0.085474	            0.928338	           -0.114161	            3.016557	          298.551677	           43.580878	           -0.235473	            0.005828	           -0.752267	            0.003582	            0.354468	            0.051743
            1.260000	           24.258342	          262.072912	          -32.091243	           -0.253709	            0.006272	           -0.417678	            0.101772	            1.099485	           -0.134634	            1.740161	          301.857580	           44.766445	           -0.235317	            0.005829	           -0.752294	            0.002056	            0.356593	            0.052884
            1.260500	           24.439429	          265.861248	          -32.717449	           -0.254206	            0.006277	           -0.418902	            0.107616	            1.170683	           -0.144067	            0.603547	          305.348968	           45.717970	           -0.234664	            0.005830	           -0.752063	            0.000694	            0.351086	            0.052566
            1.261000	           24.941272	          269.830140	          -33.389530	           -0.253996	            0.006280	           -0.419568	            0.114623	            1.240067	           -0.153449	           -0.817531	          309.760440	           46.579043	           -0.234772	            0.005829	           -0.751837	           -0.001036	            0.392590	            0.059034
            1.261500	           25.260222	          276.140907	          -33.684268	           -0.253849	            0.006276	           -0.418464	            0.108229	            1.183147	           -0.144323	           -1.725397	          314.727428	           47.113371	           -0.234589	            0.005832	           -0.752418	           -0.002588	            0.472154	            0.070680
            1.262000	           25.670116	          281.551906	          -34.349938	           -0.253926	            0.006275	           -0.418294	            0.108409	            1.189043	           -0.145066	           -2.721441	          318.219156	           48.111764	           -0.234613	            0.005831	           -0.752253	           -0.003806	            0.445000	            0.067280
            1.262500	           26.172522	          286.781250	          -34.695621	           -0.253595	            0.006275	           -0.418305	            0.112284	            1.230331	           -0.148849	           -3.671443	          321.896427	           48.782297	           -0.234546	            0.005831	           -0.752197	           -0.005534	            0.485209	            0.073532
            1.263000	           26.307813	          292.191410	          -35.177192	           -0.253781	            0.006274	           -0.418057	            0.111237	            1.235466	           -0.148739	           -4.482205	          325.942258	           49.501012	           -0.234449	            0.005831	           -0.752060	           -0.006314	            0.459142	            0.069730
            1.263500	           26.580748	          296.339963	          -35.710368	           -0.253683	            0.006278	           -0.419067	            0.117105	            1.305566	           -0.157327	           -5.290123	          329.250081	           50.639453	           -0.234281	            0.005833	           -0.752259	           -0.008198	            0.510213	            0.078472
            1.264000	           26.670032	          301.389975	          -36.285075	           -0.253504	            0.006277	           -0.418828	            0.118409	            1.338104	           -0.161098	           -6.009178	          333.848734	           51.360100	           -0.234314	            0.005832	           -0.752034	           -0.009327	            0.518194	            0.079720
            1.264500	           26.714449	          306.077875	          -36.494376	           -0.253800	            0.006278	           -0.418925	            0.119048	            1.363979	           -0.162630	           -6.351502	          337.896819	           51.937832	           -0.234262	            0.005833	           -0.752239	           -0.010962	            0.583149	            0.089635
            1.265000	           26.987510	          312.028238	          -36.836398	           -0.254139	            0.006277	           -0.418783	            0.123305	            1.425646	           -0.168304	           -6.693223	          341.761206	           52.374122	           -0.234636	            0.005832	           -0.752503	           -0.011895	            0.607367	            0.093078
            1.265500	           26.985369	          316.897604	          -37.319939	           -0.253773	            0.006278	           -0.419015	            0.119256	            1.400459	           -0.164927	           -6.939148	          345.072671	           53.043042	           -0.234286	            0.005832	           -0.752086	           -0.012216	            0.607496	            0.093382
